<svg xmlns="http://www.w3.org/2000/svg" data-name="Layer 1" viewBox="0 0 512 512" id="doctor-male"><path d="m405.678 313.426-80.025-41.057-1.418-.734c-7.026-3.638-11.476-5.93-13.875-7.145v-23.112a92.078 92.078 0 0 0 29.923-67.813v-2.732a26.925 26.925 0 0 0 23.39-26.655 21.184 21.184 0 0 0-21.16-21.16h-2.23V49.433A49.49 49.49 0 0 0 290.85 0H172.88a9.433 9.433 0 0 0-8.995 12.274l8.848 28.018a89.415 89.415 0 0 0 5.603 13.678 19.488 19.488 0 0 0-5.795 13.84v55.208h-2.231a21.184 21.184 0 0 0-21.16 21.16 26.924 26.924 0 0 0 23.39 26.655v2.732a92.074 92.074 0 0 0 29.101 67.046v23.934l-11.255 5.898a71.661 71.661 0 0 0-4.033 1.923l-51.882 26.618a3.452 3.452 0 0 0-.774.398l-27.373 14.044A83.158 83.158 0 0 0 60.94 387.72V508.5a3.5 3.5 0 1 0 7 0V387.72a76.186 76.186 0 0 1 41.578-68.066l17.333-8.893a106.71 106.71 0 0 0-11.014 55.54 27.952 27.952 0 0 0-17.826 31.37l6.052 32.121a3.5 3.5 0 0 0 4.087 2.792l10.779-2.031a3.5 3.5 0 1 0-1.296-6.88l-7.34 1.384-5.403-28.682a20.911 20.911 0 0 1 41.1-7.743l5.403 28.681-7.34 1.383a3.5 3.5 0 0 0 1.297 6.88l10.778-2.032a3.5 3.5 0 0 0 2.792-4.087l-6.052-32.121a27.903 27.903 0 0 0-30.134-22.609 100.145 100.145 0 0 1 15.395-59.752l28.38-14.56-15.523 19.59a8.5 8.5 0 0 0 3.191 13.038l17.412 7.79a1.5 1.5 0 0 1 .448 2.43L156.9 348.397a8.486 8.486 0 0 0-1.579 9.837l76.554 151.84a3.5 3.5 0 1 0 6.25-3.15l-76.553-151.841a1.497 1.497 0 0 1 .278-1.736l15.137-15.136a8.5 8.5 0 0 0-2.54-13.77l-17.41-7.788a1.5 1.5 0 0 1-.564-2.3l25.086-31.66 7.995-4.103a64.652 64.652 0 0 1 3.745-1.783q.115-.05.225-.108l11.39-5.968 45.738 30.955-20.207 21.7-.01.008c-.006.006-.01.014-.017.021l-.669.718a11.457 11.457 0 0 1-10.45 3.481c-.068-.012-.133-.007-.2-.015a3.402 3.402 0 0 0-.474-.036 3.348 3.348 0 0 0-.409.043c-.085.012-.17.01-.256.028-.008.001-.014.005-.022.007a3.541 3.541 0 0 0-.459.146c-.068.025-.14.04-.206.068-.1.044-.19.106-.285.159a3.482 3.482 0 0 0-.78.573c-.012.013-.027.021-.039.034-.053.054-.093.12-.142.177a4.65 4.65 0 0 0-.592.952c-.022.055-.032.117-.052.174a3.464 3.464 0 0 0-.142.497l-.006.02c-.013.075-.008.148-.017.223a2.398 2.398 0 0 0 .011.877c.012.08.01.158.026.238l.01.047.001.007 37.297 177.332.002.007.01.047a3.532 3.532 0 0 0 .182.597l.004.01a3.453 3.453 0 0 0 .294.56c.032.05.071.092.105.14a3.48 3.48 0 0 0 .284.356c.055.059.116.111.175.166a3.434 3.434 0 0 0 .296.252c.072.053.146.1.221.149a3.495 3.495 0 0 0 .335.186c.077.038.154.074.234.107a3.492 3.492 0 0 0 .429.136c.05.013.095.036.146.046.016.004.033.002.05.006a3.482 3.482 0 0 0 .667.07L256 512h.003a3.482 3.482 0 0 0 .668-.07c.016-.003.033-.001.05-.005.05-.01.095-.033.145-.046a3.492 3.492 0 0 0 .429-.136c.08-.033.157-.07.235-.107a3.595 3.595 0 0 0 .334-.186c.075-.048.15-.096.221-.15a3.627 3.627 0 0 0 .296-.25c.059-.056.12-.108.175-.167a3.48 3.48 0 0 0 .284-.356c.034-.048.073-.09.105-.14a3.453 3.453 0 0 0 .294-.56l.004-.01a3.532 3.532 0 0 0 .182-.597l.01-.046.002-.008 37.297-177.332.001-.007.01-.047c.017-.08.015-.158.026-.238a2.401 2.401 0 0 0 .01-.88c-.008-.074-.003-.146-.016-.22l-.006-.02a3.458 3.458 0 0 0-.142-.498c-.02-.057-.03-.118-.052-.173a4.726 4.726 0 0 0-.633-1.003c-.036-.04-.063-.087-.1-.126-.028-.028-.062-.05-.09-.077a3.474 3.474 0 0 0-.713-.52c-.1-.058-.196-.123-.302-.17-.064-.027-.135-.041-.201-.066a3.462 3.462 0 0 0-.464-.147l-.022-.007c-.079-.017-.156-.014-.235-.025a2.281 2.281 0 0 0-.835-.015c-.09.009-.178.004-.268.02a11.463 11.463 0 0 1-10.45-3.48l-.67-.72c-.006-.006-.01-.014-.017-.02l-.01-.008-20.207-21.7 45.785-30.986q3.504 1.775 13.884 7.15l16.15 8.288 18.883 28.106a1.5 1.5 0 0 1-.633 2.206l-17.864 7.992a8.5 8.5 0 0 0-2.54 13.77l15.143 15.142a1.498 1.498 0 0 1 .28 1.732l-76.09 151.845a3.5 3.5 0 1 0 6.258 3.136l76.09-151.845a8.488 8.488 0 0 0-1.588-9.818l-15.143-15.143a1.5 1.5 0 0 1 .448-2.43l17.864-7.992a8.5 8.5 0 0 0 3.585-12.498l-11.823-17.6 18.64 9.565a106.65 106.65 0 0 1 22.87 49.974 102.762 102.762 0 0 1 1.218 22.066 25.796 25.796 0 1 0 7.01-.046 109.725 109.725 0 0 0-1.321-23.158 111.773 111.773 0 0 0-16.083-41.809l20.112 10.32a76.186 76.186 0 0 1 41.577 68.066V508.5a3.5 3.5 0 0 0 7 0V387.72a83.158 83.158 0 0 0-45.382-74.294Zm-65.395-183.408h2.23a14.176 14.176 0 0 1 14.16 14.16 19.922 19.922 0 0 1-16.39 19.582ZM172.54 163.76a19.924 19.924 0 0 1-16.39-19.582 14.176 14.176 0 0 1 14.16-14.16h2.23Zm-1.98-153.594A2.433 2.433 0 0 1 172.879 7H290.85a42.481 42.481 0 0 1 42.433 42.433v78.78c-.007.09-.01.182-.01.274v21.946h-4.594a2.409 2.409 0 0 1-2.407-2.406V117.73a16.026 16.026 0 0 0-6.502-12.9A50.534 50.534 0 0 0 289.717 95H256.93a81.256 81.256 0 0 1-41.355-11.238 3.47 3.47 0 0 0-.998-.592 80.836 80.836 0 0 1-28.598-29.733 3.544 3.544 0 0 0-.28-.513 82.21 82.21 0 0 1-6.292-14.74Zm38.557 77.843a49.192 49.192 0 0 1-16.33 22.697 16.106 16.106 0 0 0-6.246 12.684v24.64a2.408 2.408 0 0 1-2.41 2.4h-4.59V67.81a12.453 12.453 0 0 1 2.445-7.374 87.765 87.765 0 0 0 27.13 27.573Zm24.81 298.537-10.9-51.832a18.362 18.362 0 0 0 9.817-3.961l4.431 4.432ZM256 491.494l-16.718-79.485 4.578-70.239 3.229 3.229a12.644 12.644 0 0 0 17.826-.004l4.017-4.017 4.076 69.65Zm23.157-160.74a18.365 18.365 0 0 0 9.817 3.96l-10.48 49.832-2.938-50.192Zm-4.933-4.968-14.255 14.255a5.628 5.628 0 0 1-7.934.004l-14.259-14.259L256 306.216Zm29.136-60.983L256 296.854l-47.36-32.051v-18.256q1.047.8 2.12 1.573a66.816 66.816 0 0 0 39.232 12.64h12.838a66.818 66.818 0 0 0 39.233-12.64c.438-.315.866-.641 1.297-.963Zm-5.383-22.366a59.857 59.857 0 0 1-35.147 11.323h-12.838a59.857 59.857 0 0 1-35.147-11.323 85.024 85.024 0 0 1-35.306-68.872V157.43h4.59a9.416 9.416 0 0 0 9.411-9.4v-24.64a8.944 8.944 0 0 1 3.517-7.138 56.277 56.277 0 0 0 18.205-24.634A88.329 88.329 0 0 0 256.93 102h32.787a43.58 43.58 0 0 1 25.917 8.477 9.003 9.003 0 0 1 3.638 7.253v30.297a9.417 9.417 0 0 0 9.407 9.406h4.604v16.132a85.026 85.026 0 0 1-35.306 68.872ZM415.233 399.86a18.782 18.782 0 1 1-18.782-18.782 18.804 18.804 0 0 1 18.782 18.782Zm-31.353 31.965a3.5 3.5 0 0 0-3.5 3.5V508.5a3.5 3.5 0 0 0 7 0v-73.174a3.5 3.5 0 0 0-3.5-3.5Zm-255.76 0a3.5 3.5 0 0 0-3.5 3.5V508.5a3.5 3.5 0 0 0 7 0v-73.174a3.5 3.5 0 0 0-3.5-3.5Zm141.012-221.063a29.695 29.695 0 0 1-25.442 0 3.5 3.5 0 0 0-2.998 6.326 36.92 36.92 0 0 0 15.72 3.537h.111a36.955 36.955 0 0 0 15.606-3.537 3.5 3.5 0 1 0-2.997-6.326Zm35.153-83.615a34.207 34.207 0 0 0-26.017 0 3.5 3.5 0 1 0 2.657 6.477 27.169 27.169 0 0 1 9.662-2.038 27.445 27.445 0 0 1 11.043 2.038 3.5 3.5 0 0 0 2.655-6.477Zm-69.732 0a34.208 34.208 0 0 0-26.017 0 3.5 3.5 0 0 0 2.657 6.477 27.21 27.21 0 0 1 20.705 0 3.5 3.5 0 1 0 2.655-6.477Zm-13.008 10.014a3.5 3.5 0 0 0-3.5 3.5v7.433a3.5 3.5 0 0 0 7 0v-7.433a3.5 3.5 0 0 0-3.5-3.5Zm69.732 0a3.5 3.5 0 0 0-3.5 3.5v7.433a3.5 3.5 0 1 0 7 0v-7.433a3.5 3.5 0 0 0-3.5-3.5Zm-34.866 60.622a16.22 16.22 0 0 0 16.204-16.201v-5.53a3.5 3.5 0 0 0-7 0v5.53a9.204 9.204 0 0 1-18.408 0v-5.53a3.5 3.5 0 0 0-7 0v5.53a16.221 16.221 0 0 0 16.204 16.2Z"></path><path fill="none" stroke="#000" stroke-linecap="round" stroke-linejoin="round" stroke-width="7" d="M306.861 266.663 293.32 331.06M205.139 266.663l13.541 64.397"></path></svg>