<?xml version="1.0" ?><!-- Uploaded to: SVG Repo, www.svgrepo.com, Generator: SVG Repo Mixer Tools -->
<svg width="800px" height="800px" viewBox="0 0 96 96" data-name="Your Icons" id="Your_Icons" xmlns="http://www.w3.org/2000/svg"><defs><style>.cls-1{fill:#231f20;}</style></defs><title/><path class="cls-1" d="M76,27.12a18.9,18.9,0,0,0-3.76-9.24c-3.57-4.51-9.7-6.63-16-5.52a9.3,9.3,0,0,0-6.89,4.93c-.21.42-2.09,4.14-1.18,5a3.12,3.12,0,0,0,2.1.65,9.19,9.19,0,0,0,4.95-1.12,14.13,14.13,0,0,1,4.19-1.29,7.14,7.14,0,0,1,3.89.36,7.29,7.29,0,0,1,4.1,4.89,11.81,11.81,0,0,1-1.33,9.52c-2.41,3.49-6.7,4.67-9,5.06a35.87,35.87,0,0,1-6.88.33v-5.4h8.43a4.69,4.69,0,0,0,4.68-4.69V26.19H30.48v4.45a4.69,4.69,0,0,0,4.68,4.69h8.43v5.15h-.65c-5.66,0-9.9,1.23-13.35,3.88-2,1.54-4.31,4.5-4.2,7.76a8.22,8.22,0,0,0,3.25,6.63c4,3,10.88,2.6,15,2V71.1H35.16a4.69,4.69,0,0,0-4.68,4.69v4.44H63.26V75.79a4.69,4.69,0,0,0-4.68-4.69H50.15V59.89q3.24.12,4.58,1.83c1.91,2.47.2,6.69.18,6.73l-.35.85.9-.16c3.86-.68,6.18-2.46,7.31-5.59,1.31-3.63.46-9.71-3.9-11.36-2.07-.78-5.22-.53-8.72,0V47.93l1.26,0c5.55-.11,11.29-.23,16.43-3.27a17.24,17.24,0,0,0,6.9-7.49A18.19,18.19,0,0,0,76,27.12ZM35.16,34.33a3.69,3.69,0,0,1-3.68-3.69V27.19H62.26v3.45a3.69,3.69,0,0,1-3.68,3.69Zm14,1v5.36l-1.67-.07c-.95,0-1.92-.09-2.89-.12V35.33ZM58.58,72.1a3.69,3.69,0,0,1,3.68,3.69v3.44H31.48V75.79a3.69,3.69,0,0,1,3.68-3.69Zm-15-19a38.63,38.63,0,0,1-4.85.37c-2.52,0-4.13-.78-4.31-2.09a2.62,2.62,0,0,1,2-2.65,18.05,18.05,0,0,1,4-.44l1.14-.05,2-.08Zm1,18v-23C46.18,48,47.73,48,49.15,48V71.1Zm13.93-18C62.31,54.56,63,60,61.83,63.21c-.91,2.53-2.73,4.06-5.7,4.77.46-1.51,1.1-4.66-.61-6.86-1.07-1.39-2.86-2.14-5.37-2.22V53.16C53.57,52.67,56.63,52.41,58.52,53.13ZM73.83,36.72a16.18,16.18,0,0,1-6.5,7.05c-4.91,2.91-10.27,3-15.94,3.13l-1.24,0h-1c-1.42,0-3,.08-4.56.15l-1,0-2,.1-1.13,0a18.81,18.81,0,0,0-4.24.47,3.6,3.6,0,0,0-2.76,3.75c.09.7.75,3,5.3,3a40.2,40.2,0,0,0,4.85-.36v5.64c-3.93.58-10.58,1-14.36-1.78a7.27,7.27,0,0,1-2.84-5.86c-.1-2.7,1.84-5.43,3.81-6.93,3.26-2.51,7.31-3.68,12.74-3.68h.65l1,0c.95,0,1.91.07,2.84.12l1.72.08,1,0a36.09,36.09,0,0,0,7-.35c4.33-.71,7.77-2.66,9.71-5.47a12.83,12.83,0,0,0,1.47-10.37A8.32,8.32,0,0,0,63.7,20a8.18,8.18,0,0,0-4.44-.42A14.81,14.81,0,0,0,54.74,21a8.19,8.19,0,0,1-4.41,1,2.78,2.78,0,0,1-1.41-.3c-.16-.47.77-2.83,1.33-3.94a8.26,8.26,0,0,1,6.18-4.4c5.92-1,11.69.94,15,5.16A18.06,18.06,0,0,1,75,27.25,17.23,17.23,0,0,1,73.83,36.72Z"/><path class="cls-1" d="M54.82,16.25a1.11,1.11,0,1,0,1.11,1.11A1.11,1.11,0,0,0,54.82,16.25Z"/></svg>